<?xml version="1.0" encoding="UTF-8" standalone="yes"?>
<svg xmlns="http://www.w3.org/2000/svg" xmlns:xlink="http://www.w3.org/1999/xlink" width="290.833px" height="290.833px" version="1.1" viewBox="2707.292 -264.708 145.417 145.416">
  <!--
	Exported with Concepts: Smarter Sketching
	Version: 1057 on iOS 15.3
	https://concepts.app/
	-->
  <title>482</title>
  <desc>Drawing exported from Concepts: Smarter Sketching</desc>
  <defs></defs>
  <g id="Front_Copy_1" opacity="1.000">
    <path id="STROKE_e65e6ffc-8613-4b0e-8d3b-770b598be596" opacity="1.000" fill="none" stroke="#4f405a" stroke-width="2.000" stroke-opacity="1.000" stroke-linecap="round" stroke-linejoin="round" d="M 2710.000 -262.000 Q 2710.867 -262.000 2715.000 -262.000 Q 2717.615 -262.000 2720.000 -262.000 Q 2722.598 -262.000 2725.000 -262.000 Q 2727.513 -262.000 2730.000 -262.000 Q 2732.584 -262.000 2735.000 -262.000 Q 2737.520 -262.000 2740.000 -262.000 Q 2742.557 -262.000 2745.000 -262.000 Q 2747.616 -262.000 2750.000 -262.000 "></path>
    <path id="STROKE_17d503c0-af0b-4b35-9541-a2147e7a8a65" opacity="1.000" fill="none" stroke="#006b47" stroke-width="2.000" stroke-opacity="1.000" stroke-linecap="round" stroke-linejoin="round" d="M 2760.000 -262.000 Q 2760.420 -262.000 2765.000 -262.000 Q 2767.516 -262.000 2770.000 -262.000 Q 2772.587 -262.000 2775.000 -262.000 Q 2777.536 -262.000 2780.000 -262.000 Q 2782.531 -262.000 2785.000 -262.000 Q 2787.602 -262.000 2790.000 -262.000 Q 2792.521 -262.000 2795.000 -262.000 Q 2797.575 -262.000 2800.000 -262.000 L 2798.832 -262.000 "></path>
    <path id="STROKE_5dc91d74-5f4f-40bc-834c-b37d19ed2c20" opacity="1.000" fill="none" stroke="#0086b6" stroke-width="2.000" stroke-opacity="1.000" stroke-linecap="round" stroke-linejoin="round" d="M 2814.150 -262.000 L 2815.000 -262.000 Q 2817.568 -262.000 2820.000 -262.000 Q 2822.576 -262.000 2825.000 -262.000 Q 2827.635 -262.000 2830.000 -262.000 Q 2832.596 -262.000 2835.000 -262.000 Q 2837.579 -262.000 2840.000 -262.000 Q 2842.616 -262.000 2845.000 -262.000 L 2846.802 -262.000 "></path>
    <path id="STROKE_2e905117-6dfa-45e1-8154-b1a9d884170f" opacity="1.000" fill="none" stroke="#006b47" stroke-width="2.000" stroke-opacity="1.000" stroke-linecap="round" stroke-linejoin="round" d="M 2795.000 -262.000 Q 2796.404 -262.000 2800.000 -262.000 "></path>
    <path id="STROKE_642392b8-4559-4efe-9ee5-86280fee4dad" opacity="1.000" fill="none" stroke="#4f405a" stroke-width="2.000" stroke-opacity="1.000" stroke-linecap="round" stroke-linejoin="round" d="M 2710.000 -122.000 Q 2710.000 -123.458 2710.000 -127.000 Q 2710.000 -129.619 2710.000 -132.000 Q 2710.000 -134.648 2710.000 -137.000 Q 2710.000 -139.974 2710.000 -142.000 Q 2710.000 -144.997 2710.000 -147.000 Q 2710.000 -149.929 2710.000 -152.000 Q 2710.000 -154.922 2710.000 -157.000 Q 2710.000 -160.007 2710.000 -162.000 Q 2710.000 -164.863 2710.000 -167.000 Q 2710.000 -169.550 2710.000 -172.000 Q 2710.000 -174.756 2710.000 -177.000 Q 2710.000 -179.841 2710.000 -182.000 Q 2710.000 -184.651 2710.000 -187.000 Q 2710.000 -189.875 2710.000 -192.000 Q 2710.000 -194.636 2710.000 -197.000 Q 2710.000 -199.683 2710.000 -202.000 Q 2710.000 -204.867 2710.000 -207.000 Q 2710.000 -209.584 2710.000 -212.000 Q 2710.000 -214.763 2710.000 -217.000 Q 2710.000 -219.586 2710.000 -222.000 Q 2710.000 -224.595 2710.000 -227.000 Q 2710.000 -229.756 2710.000 -232.000 Q 2710.000 -234.629 2710.000 -237.000 Q 2710.000 -239.528 2710.000 -242.000 Q 2710.000 -244.737 2710.000 -247.000 Q 2710.000 -249.654 2710.000 -252.000 Q 2710.000 -254.553 2710.000 -257.000 Q 2710.000 -259.562 2710.000 -262.000 "></path>
    <path id="STROKE_da24e06f-2b2d-4715-aa12-ad0a4274e5dd" opacity="1.000" fill="none" stroke="#4f405a" stroke-width="2.000" stroke-opacity="1.000" stroke-linecap="round" stroke-linejoin="round" d="M 2750.000 -122.437 Q 2750.000 -122.474 2750.000 -127.000 Q 2750.000 -129.604 2750.000 -132.000 Q 2750.000 -134.827 2750.000 -137.000 Q 2750.000 -139.591 2750.000 -142.000 Q 2750.000 -144.691 2750.000 -147.000 Q 2750.000 -149.714 2750.000 -152.000 Q 2750.000 -154.708 2750.000 -157.000 Q 2750.000 -159.763 2750.000 -162.000 Q 2750.000 -164.648 2750.000 -167.000 Q 2750.000 -169.518 2750.000 -172.000 Q 2750.000 -174.756 2750.000 -177.000 Q 2750.000 -179.858 2750.000 -182.000 Q 2750.000 -184.696 2750.000 -187.000 Q 2750.000 -189.981 2750.000 -192.000 Q 2750.000 -194.577 2750.000 -197.000 Q 2750.000 -199.509 2750.000 -202.000 Q 2750.000 -204.638 2750.000 -207.000 Q 2750.000 -209.661 2750.000 -212.000 Q 2750.000 -214.687 2750.000 -217.000 Q 2750.000 -219.878 2750.000 -222.000 Q 2750.000 -224.918 2750.000 -227.000 Q 2750.000 -229.774 2750.000 -232.000 Q 2750.000 -234.811 2750.000 -237.000 Q 2750.000 -239.637 2750.000 -242.000 Q 2750.000 -244.507 2750.000 -247.000 Q 2750.000 -249.577 2750.000 -252.000 Q 2750.000 -254.509 2750.000 -257.000 Q 2750.000 -259.503 2750.000 -262.000 "></path>
    <path id="STROKE_0ba66beb-c184-4922-87fa-82d9ea79737b" opacity="1.000" fill="none" stroke="#4f405a" stroke-width="2.000" stroke-opacity="1.000" stroke-linecap="round" stroke-linejoin="round" d="M 2750.000 -122.000 L 2748.824 -122.000 L 2750.000 -122.000 Q 2748.530 -122.000 2745.000 -122.000 Q 2742.008 -122.000 2740.000 -122.000 Q 2737.211 -122.000 2735.000 -122.000 Q 2732.384 -122.000 2730.000 -122.000 Q 2727.482 -122.000 2725.000 -122.000 Q 2722.305 -122.000 2720.000 -122.000 Q 2717.327 -122.000 2715.000 -122.000 Q 2712.362 -122.000 2710.000 -122.000 "></path>
    <path id="STROKE_1c641232-8432-4807-b1c7-6320294fd58a" opacity="1.000" fill="none" stroke="#006b47" stroke-width="2.000" stroke-opacity="1.000" stroke-linecap="round" stroke-linejoin="round" d="M 2760.000 -262.000 L 2760.332 -262.000 L 2760.000 -262.000 "></path>
    <path id="STROKE_94e5e42c-4ad9-4ddc-bbb9-d97004bb145c" opacity="1.000" fill="none" stroke="#0e544f" stroke-width="2.000" stroke-opacity="1.000" stroke-linecap="round" stroke-linejoin="round" d="M 2760.000 -222.000 Q 2760.000 -224.718 2760.000 -227.000 Q 2760.000 -229.712 2760.000 -232.000 Q 2760.000 -234.782 2760.000 -237.000 Q 2760.000 -239.682 2760.000 -242.000 Q 2760.000 -244.599 2760.000 -247.000 Q 2760.000 -249.636 2760.000 -252.000 Q 2760.000 -254.568 2760.000 -257.000 Q 2760.000 -259.532 2760.000 -262.000 "></path>
    <path id="STROKE_0fecc30b-64bf-4a9d-8501-ec30bcf961c3" opacity="1.000" fill="none" stroke="#0e544f" stroke-width="2.000" stroke-opacity="1.000" stroke-linecap="round" stroke-linejoin="round" d="M 2800.000 -262.000 Q 2797.359 -262.000 2795.000 -262.000 Q 2792.195 -262.000 2790.000 -262.000 Q 2787.478 -262.000 2785.000 -262.000 Q 2782.454 -262.000 2780.000 -262.000 Q 2777.441 -262.000 2775.000 -262.000 Q 2772.143 -262.000 2770.000 -262.000 Q 2767.333 -262.000 2765.000 -262.000 Q 2762.431 -262.000 2760.000 -262.000 "></path>
    <path id="STROKE_73ba1ca8-95ba-4be6-8500-7f3268623a5f" opacity="1.000" fill="none" stroke="#0e544f" stroke-width="2.000" stroke-opacity="1.000" stroke-linecap="round" stroke-linejoin="round" d="M 2800.000 -222.000 Q 2800.000 -222.635 2800.000 -227.000 Q 2800.000 -229.603 2800.000 -232.000 Q 2800.000 -234.567 2800.000 -237.000 Q 2800.000 -239.605 2800.000 -242.000 Q 2800.000 -244.551 2800.000 -247.000 Q 2800.000 -249.501 2800.000 -252.000 Q 2800.000 -254.509 2800.000 -257.000 Q 2800.000 -259.532 2800.000 -262.000 "></path>
    <path id="STROKE_3e59b2a1-483a-4795-b501-4c62d1f71209" opacity="1.000" fill="none" stroke="#0e544f" stroke-width="2.000" stroke-opacity="1.000" stroke-linecap="round" stroke-linejoin="round" d="M 2800.000 -222.000 Q 2799.066 -222.000 2795.000 -222.000 Q 2792.212 -222.000 2790.000 -222.000 Q 2787.448 -222.000 2785.000 -222.000 Q 2782.285 -222.000 2780.000 -222.000 Q 2777.306 -222.000 2775.000 -222.000 Q 2772.480 -222.000 2770.000 -222.000 Q 2767.392 -222.000 2765.000 -222.000 Q 2762.473 -222.000 2760.000 -222.000 "></path>
    <path id="STROKE_54f4646e-5304-479e-a128-6f74d88bc5b6" opacity="1.000" fill="none" stroke="#009489" stroke-width="2.000" stroke-opacity="1.000" stroke-linecap="round" stroke-linejoin="round" d="M 2760.000 -212.000 L 2761.495 -212.000 L 2760.000 -212.000 Q 2761.878 -212.000 2765.000 -212.000 Q 2767.712 -212.000 2770.000 -212.000 Q 2772.602 -212.000 2775.000 -212.000 Q 2777.597 -212.000 2780.000 -212.000 Q 2782.731 -212.000 2785.000 -212.000 Q 2787.571 -212.000 2790.000 -212.000 Q 2792.532 -212.000 2795.000 -212.000 Q 2797.759 -212.000 2800.000 -212.000 "></path>
    <path id="STROKE_578f21f8-872f-4b49-a896-29ea5ebfc277" opacity="1.000" fill="none" stroke="#009489" stroke-width="2.000" stroke-opacity="1.000" stroke-linecap="round" stroke-linejoin="round" d="M 2760.000 -122.000 L 2760.000 -122.697 L 2760.000 -122.000 L 2760.000 -123.586 L 2760.000 -122.000 Q 2760.000 -124.060 2760.000 -127.000 Q 2760.000 -129.772 2760.000 -132.000 Q 2760.000 -134.648 2760.000 -137.000 Q 2760.000 -140.310 2760.000 -142.000 Q 2760.000 -144.767 2760.000 -147.000 Q 2760.000 -149.827 2760.000 -152.000 Q 2760.000 -154.507 2760.000 -157.000 Q 2760.000 -159.822 2760.000 -162.000 Q 2760.000 -164.709 2760.000 -167.000 Q 2760.000 -169.794 2760.000 -172.000 Q 2760.000 -174.741 2760.000 -177.000 Q 2760.000 -180.087 2760.000 -182.000 Q 2760.000 -184.603 2760.000 -187.000 Q 2760.000 -189.981 2760.000 -192.000 Q 2760.000 -195.036 2760.000 -197.000 Q 2760.000 -199.644 2760.000 -202.000 Q 2760.000 -204.594 2760.000 -207.000 Q 2760.000 -209.508 2760.000 -212.000 "></path>
    <path id="STROKE_965207d9-be3b-40a6-b32f-84229f1db3e4" opacity="1.000" fill="none" stroke="#009489" stroke-width="2.000" stroke-opacity="1.000" stroke-linecap="round" stroke-linejoin="round" d="M 2800.000 -122.000 Q 2800.000 -123.400 2800.000 -123.721 L 2800.000 -122.000 L 2800.000 -124.045 L 2800.000 -122.000 L 2800.000 -127.000 Q 2800.000 -129.604 2800.000 -132.000 Q 2800.000 -134.995 2800.000 -137.000 Q 2800.000 -139.821 2800.000 -142.000 Q 2800.000 -144.753 2800.000 -147.000 Q 2800.000 -149.576 2800.000 -152.000 Q 2800.000 -154.722 2800.000 -157.000 Q 2800.000 -160.573 2800.000 -162.000 Q 2800.000 -164.969 2800.000 -167.000 Q 2800.000 -169.962 2800.000 -172.000 Q 2800.000 -175.109 2800.000 -177.000 Q 2800.000 -179.505 2800.000 -182.000 Q 2800.000 -184.896 2800.000 -187.000 Q 2800.000 -189.704 2800.000 -192.000 Q 2800.000 -194.559 2800.000 -197.000 Q 2800.000 -199.662 2800.000 -202.000 Q 2800.000 -204.638 2800.000 -207.000 Q 2800.000 -209.570 2800.000 -212.000 "></path>
    <path id="STROKE_298ad185-9030-4b02-9489-7980f268e530" opacity="1.000" fill="none" stroke="#009489" stroke-width="2.000" stroke-opacity="1.000" stroke-linecap="round" stroke-linejoin="round" d="M 2800.000 -122.000 Q 2800.000 -122.699 2800.000 -127.000 Q 2800.000 -129.742 2800.000 -132.000 Q 2800.000 -134.674 2800.000 -137.000 Q 2800.000 -139.559 2800.000 -142.000 Q 2800.000 -144.644 2800.000 -147.000 "></path>
    <path id="STROKE_38f6319c-707d-45c2-b570-b52c88580374" opacity="1.000" fill="none" stroke="#009489" stroke-width="2.000" stroke-opacity="1.000" stroke-linecap="round" stroke-linejoin="round" d="M 2760.000 -122.000 L 2765.000 -122.000 Q 2767.670 -122.000 2770.000 -122.000 Q 2772.619 -122.000 2775.000 -122.000 Q 2777.627 -122.000 2780.000 -122.000 Q 2782.744 -122.000 2785.000 -122.000 Q 2787.693 -122.000 2790.000 -122.000 Q 2792.595 -122.000 2795.000 -122.000 Q 2797.527 -122.000 2800.000 -122.000 "></path>
    <path id="STROKE_24cadc00-eb1b-4581-8765-d8b2bd750b92" opacity="1.000" fill="none" stroke="#0086b6" stroke-width="2.000" stroke-opacity="1.000" stroke-linecap="round" stroke-linejoin="round" d="M 2810.000 -192.000 Q 2810.000 -194.615 2810.000 -197.000 Q 2810.000 -199.701 2810.000 -202.000 Q 2810.000 -204.617 2810.000 -207.000 Q 2810.000 -209.946 2810.000 -212.000 Q 2810.000 -214.772 2810.000 -217.000 Q 2810.000 -219.504 2810.000 -222.000 Q 2810.000 -224.650 2810.000 -227.000 Q 2810.000 -229.779 2810.000 -232.000 Q 2810.000 -234.744 2810.000 -237.000 Q 2810.000 -239.661 2810.000 -242.000 Q 2810.000 -244.607 2810.000 -247.000 Q 2810.000 -249.692 2810.000 -252.000 Q 2810.000 -254.562 2810.000 -257.000 L 2810.000 -259.036 "></path>
    <path id="STROKE_7891e5b5-ebcf-45b5-8406-ed6c2f949366" opacity="1.000" fill="none" stroke="#0086b6" stroke-width="2.000" stroke-opacity="1.000" stroke-linecap="round" stroke-linejoin="round" d="M 2850.000 -192.000 Q 2850.000 -192.596 2850.000 -197.000 Q 2850.000 -199.824 2850.000 -202.000 Q 2850.000 -204.755 2850.000 -207.000 Q 2850.000 -209.687 2850.000 -212.000 Q 2850.000 -214.710 2850.000 -217.000 Q 2850.000 -219.839 2850.000 -222.000 Q 2850.000 -224.680 2850.000 -227.000 Q 2850.000 -229.506 2850.000 -232.000 Q 2850.000 -234.638 2850.000 -237.000 Q 2850.000 -239.737 2850.000 -242.000 Q 2850.000 -244.516 2850.000 -247.000 Q 2850.000 -249.554 2850.000 -252.000 Q 2850.000 -254.653 2850.000 -257.000 L 2850.000 -258.343 "></path>
    <path id="STROKE_5c0db22a-7e35-4d78-b194-f61883a71d59" opacity="1.000" fill="none" stroke="#0086b6" stroke-width="2.000" stroke-opacity="1.000" stroke-linecap="round" stroke-linejoin="round" d="M 2850.000 -257.000 L 2850.000 -258.343 "></path>
    <path id="STROKE_7fc7d8a7-3bb2-4219-a3fa-5b8c7cc7b3ed" opacity="1.000" fill="none" stroke="#0086b6" stroke-width="2.000" stroke-opacity="1.000" stroke-linecap="round" stroke-linejoin="round" d="M 2810.000 -262.000 Q 2810.512 -262.000 2815.000 -262.000 "></path>
    <path id="STROKE_9ba295a9-bb64-432d-9f2f-76e846caa2db" opacity="1.000" fill="none" stroke="#0086b6" stroke-width="2.000" stroke-opacity="1.000" stroke-linecap="round" stroke-linejoin="round" d="M 2810.000 -260.966 Q 2810.000 -260.689 2810.000 -257.000 Q 2810.000 -254.456 2810.000 -252.000 "></path>
    <path id="STROKE_f2e1ae86-7711-4d42-8933-f2716810cd84" opacity="1.000" fill="none" stroke="#0086b6" stroke-width="2.000" stroke-opacity="1.000" stroke-linecap="round" stroke-linejoin="round" d="M 2810.000 -262.000 Q 2810.000 -260.904 2810.000 -257.000 "></path>
    <path id="STROKE_15218dc4-b006-46aa-9c77-d7606304e95f" opacity="1.000" fill="none" stroke="#0086b6" stroke-width="2.000" stroke-opacity="1.000" stroke-linecap="round" stroke-linejoin="round" d="M 2845.000 -262.000 Q 2846.754 -262.000 2850.000 -262.000 "></path>
    <path id="STROKE_0ae6d512-06c3-4544-8c00-af794a15a58d" opacity="1.000" fill="none" stroke="#0086b6" stroke-width="2.000" stroke-opacity="1.000" stroke-linecap="round" stroke-linejoin="round" d="M 2850.000 -261.149 L 2850.000 -260.872 L 2850.000 -262.000 Q 2850.000 -259.723 2850.000 -257.000 Q 2850.000 -254.332 2850.000 -252.000 Q 2850.000 -252.480 2850.000 -252.848 L 2850.000 -252.000 "></path>
    <path id="STROKE_c1c9a6fa-e817-4e4f-aaea-097b85cdf416" opacity="1.000" fill="none" stroke="#0086b6" stroke-width="2.000" stroke-opacity="1.000" stroke-linecap="round" stroke-linejoin="round" d="M 2810.000 -192.000 Q 2810.080 -192.000 2815.000 -192.000 Q 2817.850 -192.000 2820.000 -192.000 Q 2822.537 -192.000 2825.000 -192.000 Q 2827.684 -192.000 2830.000 -192.000 Q 2832.860 -192.000 2835.000 -192.000 Q 2837.594 -192.000 2840.000 -192.000 Q 2842.589 -192.000 2845.000 -192.000 Q 2847.509 -192.000 2850.000 -192.000 "></path>
    <path id="STROKE_59c846cf-7ac3-467b-8509-af2f2fdc7ff8" opacity="1.000" fill="none" stroke="#6e438c" stroke-width="2.000" stroke-opacity="1.000" stroke-linecap="round" stroke-linejoin="round" d="M 2810.000 -182.000 Q 2810.000 -181.766 2810.000 -181.350 Q 2810.000 -180.935 2810.000 -180.506 Q 2810.000 -180.077 2810.000 -177.000 Q 2810.000 -174.137 2810.000 -172.000 Q 2810.000 -169.497 2810.000 -167.000 Q 2810.000 -164.241 2810.000 -162.000 Q 2810.000 -159.495 2810.000 -157.000 Q 2810.000 -154.378 2810.000 -152.000 Q 2810.000 -149.369 2810.000 -147.000 Q 2810.000 -144.470 2810.000 -142.000 Q 2810.000 -139.294 2810.000 -137.000 Q 2810.000 -134.497 2810.000 -132.000 Q 2810.000 -129.383 2810.000 -127.000 Q 2810.000 -124.419 2810.000 -122.000 L 2810.000 -122.352 L 2810.000 -122.000 "></path>
    <path id="STROKE_f40ed8c7-a2bf-4c2c-876d-e8c21b6f559d" opacity="1.000" fill="none" stroke="#6e438c" stroke-width="2.000" stroke-opacity="1.000" stroke-linecap="round" stroke-linejoin="round" d="M 2850.000 -182.000 Q 2850.000 -181.012 2850.000 -177.000 Q 2850.000 -174.290 2850.000 -172.000 Q 2850.000 -169.114 2850.000 -167.000 Q 2850.000 -164.303 2850.000 -162.000 Q 2850.000 -159.404 2850.000 -157.000 Q 2850.000 -154.224 2850.000 -152.000 Q 2850.000 -149.234 2850.000 -147.000 Q 2850.000 -144.331 2850.000 -142.000 Q 2850.000 -139.400 2850.000 -137.000 Q 2850.000 -134.438 2850.000 -132.000 Q 2850.000 -129.474 2850.000 -127.000 Q 2850.000 -124.466 2850.000 -122.000 "></path>
    <path id="STROKE_53a49fdd-bb1d-451a-b07c-9fb82f6bff2e" opacity="1.000" fill="none" stroke="#6e438c" stroke-width="2.000" stroke-opacity="1.000" stroke-linecap="round" stroke-linejoin="round" d="M 2850.000 -182.000 L 2845.000 -182.000 Q 2842.391 -182.000 2840.000 -182.000 Q 2837.093 -182.000 2835.000 -182.000 Q 2832.110 -182.000 2830.000 -182.000 Q 2826.656 -182.000 2825.000 -182.000 Q 2822.137 -182.000 2820.000 -182.000 Q 2817.466 -182.000 2815.000 -182.000 Q 2812.320 -182.000 2810.000 -182.000 L 2811.059 -182.000 L 2810.000 -182.000 "></path>
    <path id="STROKE_13700d99-7364-4032-84ec-53903d3d4acd" opacity="1.000" fill="none" stroke="#6e438c" stroke-width="2.000" stroke-opacity="1.000" stroke-linecap="round" stroke-linejoin="round" d="M 2850.000 -122.000 Q 2848.462 -122.000 2845.000 -122.000 Q 2842.264 -122.000 2840.000 -122.000 Q 2837.152 -122.000 2835.000 -122.000 Q 2831.760 -122.000 2830.000 -122.000 Q 2826.689 -122.000 2825.000 -122.000 Q 2821.694 -122.000 2820.000 -122.000 Q 2817.095 -122.000 2815.000 -122.000 Q 2812.151 -122.000 2810.000 -122.000 "></path>
    <path id="STROKE_0fe2c54e-b225-4acf-a6c6-960717f21af8" opacity="1.000" fill="#4f405a" stroke="#4f405a" stroke-width="0.500" stroke-opacity="1.000" stroke-linecap="round" stroke-linejoin="round" d="M 2710.059 -261.294 L 2749.934 -261.294 L 2749.935 -122.217 L 2710.059 -122.217 Z"></path>
    <path id="STROKE_396f3fe3-84d0-44aa-ad20-546ec494e993" opacity="1.000" fill="#0e544f" stroke="#0e544f" stroke-width="0.500" stroke-opacity="1.000" stroke-linecap="round" stroke-linejoin="round" d="M 2759.944 -262.053 L 2799.935 -262.053 L 2799.935 -222.062 L 2759.944 -222.062 Z"></path>
    <path id="STROKE_c3def90c-3c3d-444a-9f9a-69bc6eaeadd3" opacity="1.000" fill="#009489" stroke="#009489" stroke-width="0.500" stroke-opacity="1.000" stroke-linecap="round" stroke-linejoin="round" d="M 2759.939 -211.974 L 2799.930 -211.974 L 2799.931 -122.138 L 2759.940 -122.138 Z"></path>
    <path id="STROKE_aa7ba0b6-ea8c-4f08-834d-d42631dc3813" opacity="1.000" fill="#0086b6" stroke="#0086b6" stroke-width="0.500" stroke-opacity="1.000" stroke-linecap="round" stroke-linejoin="round" d="M 2809.948 -262.008 L 2849.939 -262.008 L 2849.939 -192.110 L 2809.948 -192.110 Z"></path>
    <path id="STROKE_7a42e5d7-019d-4dae-9d09-9b525c5a7200" opacity="1.000" fill="#6e438c" stroke="#6e438c" stroke-width="0.500" stroke-opacity="1.000" stroke-linecap="round" stroke-linejoin="round" d="M 2809.947 -182.024 L 2849.938 -182.025 L 2849.938 -122.096 L 2809.947 -122.096 Z"></path>
  </g>
</svg>