<?xml version="1.0" standalone="no"?>
<!DOCTYPE svg PUBLIC "-//W3C//DTD SVG 20010904//EN"
 "http://www.w3.org/TR/2001/REC-SVG-20010904/DTD/svg10.dtd">
<svg version="1.0" xmlns="http://www.w3.org/2000/svg"
 width="700.000000pt" height="700.000000pt" viewBox="0 0 700.000000 700.000000"
 preserveAspectRatio="xMidYMid meet">
<metadata>
Created by potrace 1.14, written by Peter Selinger 2001-2017
</metadata>
<g transform="translate(0.000000,700.000000) scale(0.100000,-0.100000)"
fill="#000000" stroke="none">
<path d="M97 6901 c-22 -24 -21 -6778 0 -6802 13 -15 102 -16 994 -16 764 0
983 3 996 13 16 11 17 223 18 3400 0 3115 -1 3390 -16 3405 -15 15 -105 16
-997 16 -889 0 -983 -1 -995 -16z"/>
<path d="M2502 6908 c-9 -9 -12 -245 -12 -999 0 -894 2 -988 16 -1000 24 -20
1948 -22 1982 -2 l22 13 0 988 c0 755 -3 991 -12 1000 -17 17 -1979 17 -1996
0z"/>
<path d="M4907 6900 c-18 -26 -16 -3412 2 -3434 12 -14 125 -15 996 -16 919 0
983 2 997 18 13 15 15 221 16 1717 0 1475 -2 1702 -15 1716 -13 15 -99 17
-999 17 -928 -1 -985 -2 -997 -18z"/>
<path d="M2502 4498 c-9 -9 -12 -513 -12 -2205 0 -2078 1 -2193 18 -2201 23
-13 1961 -13 1985 0 16 8 17 123 17 2201 0 1692 -3 2196 -12 2205 -17 17
-1979 17 -1996 0z"/>
<path d="M4912 3054 c-15 -11 -16 -132 -16 -1475 -1 -1343 0 -1465 15 -1480
15 -15 102 -17 998 -16 887 0 982 1 995 16 11 14 13 242 13 1479 0 1288 -2
1464 -15 1475 -21 17 -1965 19 -1990 1z"/>
</g>
</svg>
