<svg xmlns="http://www.w3.org/2000/svg" width="20" height="20"><link xmlns="" type="text/css" rel="stylesheet" id="dark-mode-custom-link"/><link xmlns="" type="text/css" rel="stylesheet" id="dark-mode-general-link"/><style xmlns="" lang="en" type="text/css" id="dark-mode-custom-style"/><style xmlns="" lang="en" type="text/css" id="dark-mode-native-style"/>
<g transform="translate(0,-1032.3622)">
<circle r="88.5" cy="100" cx="100" style="fill:#ffffff;fill-opacity:1;stroke:none" transform="matrix(0.09676175,0,0,0.09676175,0.33811221,1032.6899)" d="m 188.5,100 c 0,48.8772 -39.6228,88.5 -88.5,88.5 -48.8772,0 -88.5,-39.6228 -88.5,-88.5 0,-48.8772 39.6228,-88.5 88.5,-88.5 48.8772,0 88.5,39.6228 88.5,88.5 z"/>
<path style="fill:#000000;fill-opacity:1" d="m 10.032464,1032.6889 c -5.3308232,0 -9.70578429,4.3265 -9.70578429,9.6572 0,5.3309 4.37496109,9.7058 9.70578429,9.7058 5.330824,0 9.657257,-4.3749 9.657257,-9.7058 0,-5.3307 -4.326433,-9.6572 -9.657257,-9.6572 z m 0,2.2323 c 4.128063,0 7.424926,3.2969 7.424926,7.4249 0,4.1282 -3.296863,7.4735 -7.424926,7.4735 -4.1280622,0 -7.4734537,-3.3453 -7.4734537,-7.4735 0,-4.128 3.3453915,-7.4249 7.4734537,-7.4249 z"/>
<path style="fill:#000000;fill-opacity:1" d="m 14.138173,1038.333 c -0.27225,-0.2199 -0.839577,-0.5745 -1.28159,-0.1325 l -0.894635,0.8946 1.723536,1.7236 0.894635,-0.8947 c 0.573749,-0.5737 -0.253163,-1.4022 -0.287256,-1.4363 -0.0083,-0.01 -0.06397,-0.081 -0.15469,-0.1547 z m -2.798084,1.3839 -4.6265409,4.6265 -0.6628703,2.3865 2.3864564,-0.6629 4.6265408,-4.6265 z"/>  </g>
</svg>